# xmcd CD database file
#
# Track frame offsets:
#	150
#	11433
#	35544
#	56230
#	67707
#	85437
#	106845
#	119312
#	129953
#	147043
#	166862
#	196635
#
# Disc length: 2920 seconds
#
# Revision: 0
# Processed by: cddbd v1.5.2PL0 Copyright (c) Steve Scherf et al.
# Submitted via: CDex 1.51
#
DISCID=910b660c
DTITLE=LES CHEVALS - Konkman
DYEAR=2007
DGENRE=Jazz
TTITLE0=EX AEQUO
TTITLE1=CALL ME BACK
TTITLE2=MOLUX
TTITLE3=PLAYTIME
TTITLE4=SANS ESCALE
TTITLE5=BLOUSON NEUF
TTITLE6=TWO BIGORNOTS...
TTITLE7=TOO BIG
TTITLE8=VALSE MACABRE
TTITLE9=CHEWALKYRIE
TTITLE10=JAH PONEYS
TTITLE11=ALCAPULKO
EXTD=YEAR: 2007
EXTT0=
EXTT1=
EXTT2=
EXTT3=
EXTT4=
EXTT5=
EXTT6=
EXTT7=
EXTT8=
EXTT9=
EXTT10=
EXTT11=
PLAYORDER=
